<svg xmlns="http://www.w3.org/2000/svg" width="1024" height="1024" viewBox="0 0 1024 1024">
  <rect width="1024" height="1024" rx="220" fill="#f8f5ef"/>

  <g transform="translate(512 490)">
    <g fill="none" stroke-linecap="round" stroke-linejoin="round">
      <path d="M-290 -250h100" stroke="#8f9298" stroke-width="42"/>
      <path d="M190 -250h100" stroke="#8f9298" stroke-width="42"/>
      <path d="M-335 -250h55l-18 -38 32 -26 30 26 -18 38" fill="#d84e40" stroke="#7f848a" stroke-width="16"/>
      <path d="M280 -250h55l-18 -38 32 -26 30 26 -18 38" fill="#d6d9df" stroke="#7f848a" stroke-width="16"/>
    </g>

    <g transform="translate(0 -300)">
      <path d="M-34 86c-58 0-98-47-98-95 0-41 32-69 79-69 24 0 38 5 53 12 21-20 48-32 86-32 48 0 84 26 84 74 0 40-26 76-63 96 3 10 4 18 4 28 0 30-23 58-63 58-28 0-50-14-64-38-10 8-24 13-38 13-40 0-67-20-67-47 0-16 6-28 17-39-18-13-30-33-30-61 0-54 40-100 100-100 24 0 46 7 63 19 17-14 40-23 67-23 55 0 91 34 91 86 0 60-48 111-116 125-21 43-53 67-105 67z" fill="#d6c9aa" stroke="#4e4334" stroke-width="18"/>
      <g fill="#3c2f24">
        <ellipse cx="-50" cy="-6" rx="14" ry="17"/>
        <ellipse cx="55" cy="-10" rx="16" ry="18"/>
      </g>
      <path d="M-10 25 24 56-16 56z" fill="#695a47"/>
      <path d="M-58 88c30 18 74 19 115 1" fill="none" stroke="#3c2f24" stroke-width="18" stroke-linecap="round"/>
    </g>

    <path d="M-165 -220h330l44 44-24 426-64 88H58l-27 64-72-64h-102l-27-58 22-108-17-44z" fill="#1d1b20" stroke="#2e2b31" stroke-width="16" stroke-linejoin="round"/>

    <g transform="translate(0 10) rotate(-6)">
      <path d="M-112 -88c79-61 192-67 246-8 39 43 29 112-14 158-56 60-160 81-269 29-63-31-90-98-65-153 17-38 53-62 102-77z" fill="#ffbf57"/>
      <path d="M-93 -65c52-43 130-57 182-37 38 15 58 48 54 84-4 31-28 64-67 86-39 22-102 31-151 14-47-16-75-53-72-96 2-21 10-39 23-51 15 31 36 51 56 61 30 14 72 18 108 8-24-7-46-18-62-31-20-17-31-41-34-61 17 6 39 11 58 11-11-10-21-25-24-40 11 11 19 18 29 24z" fill="#1d1b20"/>
      <g fill="#f7efe0">
        <path d="M36 45 74 71 27 80z"/>
        <path d="M76 60 113 85 65 96z"/>
        <path d="M117 74 154 97 105 109z"/>
        <path d="M-52 30 3 16-28 57z"/>
      </g>
      <path d="M-116 -99c52-43 122-67 194-60" fill="none" stroke="#ffe0a5" stroke-width="18" stroke-linecap="round" opacity=".65"/>
    </g>

    <g fill="#e6d7bc" stroke="#1d1b20" stroke-width="12" stroke-linejoin="round">
      <path d="M-137 -176h34l-14 36h-33z"/>
      <path d="M-90 -168h28l-11 34h-28z"/>
      <path d="M-50 -160h24l-9 32h-24z"/>
      <path d="M-8 -152h21l-8 31h-21z"/>
      <path d="M34 -145h19l-7 30h-19z"/>
    </g>

    <g fill="#1d1b20">
      <circle cx="-188" cy="328" r="14"/>
      <circle cx="-120" cy="354" r="10"/>
      <circle cx="28" cy="388" r="10"/>
      <circle cx="144" cy="334" r="12"/>
    </g>
  </g>
</svg>
